<svg width="658" height="662" viewBox="0 0 658 662" fill="none" xmlns="http://www.w3.org/2000/svg">
<path d="M437.389 237.766C432.02 216.066 391.393 213.425 368.695 215.223L370.417 208.049C450.196 203.982 455.998 231.769 448.927 246.171C423.872 310.217 320.689 346.563 252.674 360.218C227.88 361.527 229.228 359.591 233.001 358.459L266.458 350.152C417.323 313.576 441.539 254.538 437.389 237.766Z" fill="#7CC242"/>
<path d="M24.3835 359.445C29.7529 381.145 70.38 383.786 93.0779 381.988L91.3563 389.161C11.5771 393.229 5.77467 365.442 12.8458 351.04C37.9004 286.994 151.929 249.101 219.944 235.446C244.738 234.137 243.39 236.073 239.617 237.205L206.16 245.511C47.3105 278.42 20.2333 342.672 24.3835 359.445Z" fill="#7CC242"/>
<circle r="11.5386" transform="matrix(-0.359546 0.933127 0.933127 0.359546 365.044 212.318)" fill="#7CC242"/>
<path d="M360.788 223.356C363.644 224.457 366.823 224.368 369.626 223.111C372.43 221.854 374.628 219.531 375.737 216.652C375.794 216.504 375.848 216.357 375.899 216.207C376.173 215.401 376.358 214.569 376.453 213.725C376.321 213.844 376.19 213.961 376.053 214.076C376.052 214.078 376.048 214.08 376.044 214.085L376.04 214.086C375.897 214.208 375.755 214.327 375.612 214.443C375.576 214.471 375.542 214.499 375.509 214.528C375.371 214.636 375.234 214.744 375.092 214.847C375.055 214.879 375.016 214.909 374.975 214.937C374.87 215.019 374.759 215.098 374.65 215.175C374.575 215.23 374.496 215.286 374.421 215.338C374.308 215.417 374.196 215.492 374.081 215.567C374.007 215.619 373.935 215.665 373.856 215.712C373.76 215.778 373.66 215.839 373.56 215.9C373.474 215.957 373.387 216.011 373.296 216.063C373.175 216.138 373.052 216.209 372.923 216.279C372.872 216.311 372.819 216.342 372.763 216.372C372.628 216.448 372.491 216.521 372.352 216.593C372.279 216.632 372.206 216.672 372.128 216.709C372.048 216.752 371.969 216.792 371.886 216.832C371.736 216.909 371.58 216.981 371.425 217.053C371.406 217.063 371.387 217.072 371.367 217.079C371.218 217.15 371.065 217.216 370.913 217.28C370.811 217.328 370.709 217.369 370.608 217.407C370.497 217.457 370.384 217.501 370.272 217.544C370.207 217.571 370.144 217.595 370.081 217.616C369.931 217.674 369.78 217.728 369.628 217.782C369.55 217.81 369.47 217.837 369.39 217.861C369.279 217.901 369.168 217.939 369.057 217.971C368.951 218.007 368.843 218.039 368.736 218.069C368.641 218.1 368.544 218.127 368.451 218.152C368.329 218.188 368.207 218.222 368.084 218.252C367.961 218.282 367.836 218.317 367.71 218.346C367.653 218.362 367.596 218.375 367.538 218.386C367.362 218.427 367.185 218.465 367.009 218.5C366.79 218.547 366.57 218.588 366.349 218.622C366.253 218.64 366.158 218.655 366.063 218.669C365.287 218.788 364.506 218.858 363.722 218.88C363.611 218.886 363.502 218.889 363.391 218.888C363.27 218.893 363.15 218.892 363.029 218.89C362.93 218.89 362.828 218.89 362.727 218.886C362.616 218.885 362.503 218.88 362.393 218.877C361.99 218.863 361.588 218.837 361.186 218.794C361.085 218.784 360.986 218.775 360.886 218.762C360.821 218.757 360.76 218.749 360.696 218.741L360.387 218.699C359.966 218.64 359.548 218.565 359.129 218.478L358.846 218.417C358.802 218.406 358.761 218.397 358.717 218.387C358.605 218.363 358.494 218.336 358.384 218.307C358.218 218.265 358.052 218.224 357.889 218.177C357.845 218.166 357.802 218.153 357.759 218.14C357.646 218.109 357.532 218.075 357.42 218.041C357.309 218.008 357.193 217.97 357.08 217.932C357 217.908 356.921 217.881 356.839 217.853C356.579 217.765 356.321 217.672 356.066 217.574C355.935 217.524 355.807 217.474 355.682 217.42C355.615 217.394 355.551 217.369 355.485 217.341C355.258 217.243 355.034 217.144 354.813 217.04L354.805 217.037C354.75 217.012 354.696 216.988 354.642 216.961C354.494 216.891 354.349 216.819 354.202 216.746C354.197 216.745 354.192 216.742 354.189 216.738C354.384 217.247 354.615 217.741 354.88 218.217L354.885 218.229C354.886 218.231 354.887 218.232 354.889 218.234C356.198 220.584 358.284 222.396 360.788 223.356Z" fill="#7CC242"/>
<path d="M356.065 217.573C359.388 218.855 362.999 219.208 366.515 218.594C370.031 217.98 373.322 216.423 376.039 214.086C376.045 214.084 376.05 214.08 376.053 214.075L376.057 214.073C376.191 213.958 376.322 213.841 376.453 213.724C376.566 212.718 376.546 211.702 376.392 210.703C376.282 209.98 376.104 209.27 375.862 208.582C375.722 208.64 375.582 208.696 375.44 208.75L375.436 208.752C375.433 208.751 375.43 208.753 375.426 208.754L375.425 208.757C370.864 210.52 365.825 210.522 361.282 208.763C359.324 208.009 357.498 206.947 355.873 205.617L355.874 205.614C355.868 205.612 355.864 205.607 355.858 205.605L355.859 205.602C355.855 205.599 355.851 205.596 355.846 205.594C355.698 205.473 355.551 205.349 355.409 205.223L354.202 208.354C353.157 211.054 353.152 214.045 354.189 216.738C354.391 216.841 354.596 216.94 354.804 217.036C355.215 217.229 355.635 217.407 356.065 217.573Z" fill="#7CC242"/>
<g style="mix-blend-mode:multiply" opacity="0.15">
<g style="mix-blend-mode:multiply" opacity="0.15">
<path d="M376.392 210.705C376.282 209.982 376.104 209.272 375.862 208.584C372.467 209.981 368.759 210.407 365.148 209.814C361.538 209.221 358.167 207.632 355.409 205.225C355.409 205.225 361.084 213.015 376.392 210.705Z" fill="#7CC242"/>
</g>
</g>
<g style="mix-blend-mode:multiply" opacity="0.15">
<g style="mix-blend-mode:multiply" opacity="0.15">
<path d="M375.903 216.207C376.176 215.401 376.362 214.569 376.457 213.725C373.735 216.197 370.388 217.866 366.789 218.545C363.19 219.225 359.48 218.888 356.07 217.574C355.43 217.328 354.804 217.049 354.193 216.738C354.193 216.738 363.536 223.679 375.903 216.207Z" fill="#7CC242"/>
</g>
</g>
<g style="mix-blend-mode:multiply" opacity="0.25">
<g style="mix-blend-mode:multiply" opacity="0.25">
<path d="M357.336 218.166C357.57 218.237 357.816 218.313 358.072 218.392C358.328 218.465 358.595 218.568 358.877 218.622C359.159 218.686 359.453 218.751 359.753 218.818C360.052 218.894 360.367 218.922 360.685 218.974C361.011 219.032 361.34 219.072 361.67 219.093C362.006 219.116 362.344 219.141 362.692 219.165C363.038 219.17 363.387 219.166 363.743 219.162C364.098 219.17 364.453 219.127 364.81 219.103L365.346 219.062C365.525 219.044 365.703 219.013 365.881 218.989C366.233 218.928 366.594 218.894 366.943 218.809C367.292 218.731 367.641 218.654 367.987 218.575C368.657 218.396 369.317 218.182 369.964 217.934C370.569 217.703 371.163 217.443 371.743 217.152C372.014 217.003 372.278 216.857 372.533 216.717C372.659 216.647 372.782 216.575 372.904 216.506C373.022 216.433 373.138 216.355 373.249 216.282C373.475 216.135 373.688 215.995 373.894 215.859C374.1 215.722 374.276 215.572 374.453 215.444C374.796 215.174 375.102 214.951 375.333 214.734C375.769 214.346 376.025 214.106 376.055 214.076C376.052 214.081 376.047 214.085 376.041 214.087C373.324 216.424 370.034 217.982 366.517 218.596C363.001 219.21 359.391 218.857 356.067 217.575C355.637 217.409 355.217 217.231 354.807 217.037C354.873 217.072 355.177 217.228 355.665 217.468C355.809 217.533 355.95 217.613 356.137 217.685C356.308 217.754 356.496 217.83 356.697 217.911C356.899 217.992 357.11 218.076 357.336 218.166Z" fill="#7CC242"/>
</g>
</g>
<g style="mix-blend-mode:multiply" opacity="0.25">
<g style="mix-blend-mode:multiply" opacity="0.25">
<path d="M375.427 208.757L375.426 208.76C375.434 208.759 375.435 208.756 375.439 208.754C375.436 208.753 375.432 208.755 375.427 208.757Z" fill="#7CC242"/>
</g>
</g>
<g style="mix-blend-mode:multiply" opacity="0.25">
<g style="mix-blend-mode:multiply" opacity="0.25">
<path d="M355.86 205.605C355.865 205.608 355.87 205.613 355.874 205.617L355.875 205.614C355.871 205.609 355.865 205.607 355.861 205.602C355.857 205.599 355.852 205.596 355.848 205.594C355.851 205.598 355.855 205.601 355.86 205.605Z" fill="#7CC242"/>
</g>
</g>
<g style="mix-blend-mode:multiply" opacity="0.25">
<g style="mix-blend-mode:multiply" opacity="0.25">
<path d="M361.439 209.098C362.03 209.331 362.633 209.531 363.247 209.698C363.878 209.871 364.519 210.012 365.165 210.119C365.493 210.171 365.819 210.219 366.146 210.249L366.634 210.299C366.797 210.307 366.959 210.318 367.121 210.326C367.284 210.334 367.446 210.345 367.606 210.351C367.766 210.352 367.928 210.353 368.084 210.352C368.405 210.357 368.717 210.342 369.026 210.326C369.336 210.317 369.638 210.288 369.934 210.258C370.229 210.227 370.519 210.187 370.798 210.143C371.077 210.106 371.347 210.059 371.608 210.002C371.869 209.948 372.121 209.898 372.359 209.835C372.597 209.772 372.828 209.72 373.041 209.654C373.255 209.588 373.459 209.522 373.649 209.46C374.03 209.333 374.354 209.204 374.624 209.109C375.085 208.913 375.368 208.784 375.43 208.757C370.869 210.519 365.83 210.521 361.287 208.763C359.329 208.009 357.503 206.947 355.877 205.617C355.905 205.644 355.955 205.689 356.026 205.754C356.136 205.858 356.3 206.011 356.52 206.193C357.126 206.702 357.766 207.169 358.436 207.59C358.884 207.874 359.345 208.136 359.819 208.374C360.344 208.646 360.885 208.888 361.439 209.098Z" fill="#7CC242"/>
</g>
</g>
<g style="mix-blend-mode:screen" opacity="0.4">
<g style="mix-blend-mode:screen" opacity="0.4">
<path d="M356.065 217.574C359.388 218.856 362.999 219.209 366.515 218.595C370.031 217.981 373.322 216.424 376.039 214.087C375.97 214.134 375.691 214.329 375.257 214.641C375.014 214.834 374.688 215.026 374.325 215.256C373.967 215.498 373.537 215.728 373.077 215.985C372.96 216.049 372.841 216.116 372.723 216.183C372.599 216.241 372.473 216.302 372.345 216.362C372.088 216.489 371.823 216.615 371.551 216.748C370.99 216.969 370.412 217.236 369.784 217.434C369.169 217.67 368.51 217.825 367.847 218.013C367.51 218.086 367.172 218.158 366.832 218.23C366.492 218.308 366.142 218.337 365.798 218.394C365.625 218.421 365.453 218.454 365.28 218.471L364.759 218.515C364.413 218.543 364.07 218.59 363.724 218.586C363.383 218.593 363.042 218.6 362.704 218.608C362.367 218.594 362.034 218.581 361.707 218.568C361.379 218.567 361.059 218.511 360.746 218.487C360.431 218.452 360.123 218.44 359.828 218.377C359.235 218.275 358.669 218.195 358.163 218.061C357.907 218.004 357.66 217.948 357.426 217.893C357.194 217.826 356.973 217.76 356.767 217.7C356.56 217.64 356.366 217.581 356.188 217.528C356.018 217.482 355.854 217.409 355.707 217.359C355.196 217.172 354.875 217.061 354.804 217.037C355.215 217.231 355.634 217.408 356.065 217.574Z" fill="#7CC242"/>
</g>
</g>
<g style="mix-blend-mode:screen" opacity="0.4">
<g style="mix-blend-mode:screen" opacity="0.4">
<path d="M361.283 208.763C365.826 210.522 370.865 210.52 375.426 208.757C375.432 208.757 375.433 208.754 375.437 208.752C375.434 208.751 375.431 208.753 375.427 208.755C375.359 208.773 375.059 208.857 374.579 209C374.304 209.068 373.974 209.163 373.588 209.246C373.202 209.328 372.764 209.42 372.288 209.497C372.049 209.544 371.801 209.577 371.542 209.609C371.284 209.642 371.017 209.68 370.741 209.702C370.465 209.731 370.183 209.758 369.892 209.768C369.601 209.778 369.307 209.803 369.008 209.8C368.706 209.806 368.401 209.811 368.092 209.794C367.784 209.789 367.471 209.774 367.158 209.75C366.999 209.74 366.841 209.727 366.682 209.718L366.208 209.664C365.892 209.632 365.576 209.581 365.262 209.528C364.632 209.43 364.008 209.3 363.392 209.138C362.783 208.978 362.186 208.806 361.619 208.603C359.844 207.983 358.154 207.141 356.588 206.099C356.204 205.845 355.955 205.671 355.875 205.615C355.87 205.61 355.865 205.608 355.86 205.603C355.856 205.599 355.852 205.597 355.847 205.594C355.851 205.598 355.855 205.602 355.859 205.605C355.864 205.609 355.869 205.613 355.874 205.617C357.499 206.947 359.325 208.009 361.283 208.763Z" fill="#7CC242"/>
</g>
</g>
<g style="mix-blend-mode:multiply" opacity="0.25">
<g style="mix-blend-mode:multiply" opacity="0.25">
<path d="M360.79 223.355C363.646 224.456 366.825 224.367 369.629 223.11C372.432 221.853 374.63 219.53 375.739 216.651C375.739 216.651 375.694 216.743 375.609 216.916C375.527 217.094 375.388 217.339 375.216 217.653C375.036 217.963 374.805 218.331 374.521 218.736C374.195 219.182 373.843 219.608 373.468 220.012C373.021 220.484 372.537 220.919 372.022 221.314C371.447 221.748 370.837 222.132 370.198 222.461C369.515 222.809 368.801 223.091 368.065 223.302C367.308 223.524 366.53 223.663 365.744 223.717C364.958 223.779 364.168 223.758 363.388 223.655C362.631 223.555 361.887 223.382 361.164 223.139C360.485 222.909 359.828 222.619 359.2 222.273C358.637 221.96 358.099 221.601 357.594 221.2C357.163 220.858 356.756 220.489 356.373 220.093C356.036 219.735 355.754 219.408 355.536 219.127C355.319 218.847 355.151 218.619 355.047 218.46C354.966 218.338 354.915 218.264 354.892 218.233C356.2 220.583 358.287 222.395 360.79 223.355Z" fill="#7CC242"/>
</g>
</g>
<circle r="11.5386" transform="matrix(0.359546 -0.933127 -0.933127 -0.359546 96.7254 384.895)" fill="#7CC242"/>
<path d="M100.978 373.855C98.1219 372.754 94.9427 372.843 92.1392 374.1C89.3357 375.357 87.1377 377.68 86.0286 380.559C85.9714 380.707 85.918 380.854 85.8664 381.004C85.593 381.809 85.4072 382.642 85.3122 383.486C85.4444 383.367 85.5755 383.25 85.7122 383.135C85.7133 383.133 85.7172 383.131 85.7221 383.126L85.726 383.125C85.8687 383.003 86.0103 382.883 86.1537 382.768C86.1899 382.74 86.2234 382.711 86.2569 382.683C86.3942 382.575 86.5315 382.467 86.6733 382.364C86.7107 382.332 86.75 382.302 86.7909 382.274C86.8958 382.192 87.0063 382.113 87.1157 382.036C87.191 381.981 87.2701 381.925 87.3443 381.873C87.4576 381.794 87.5697 381.718 87.6847 381.644C87.7589 381.592 87.831 381.546 87.9097 381.499C88.0053 381.433 88.1055 381.372 88.2056 381.311C88.2914 381.254 88.3789 381.2 88.4692 381.148C88.5907 381.073 88.714 381.001 88.8429 380.932C88.8935 380.9 88.9469 380.869 89.003 380.839C89.1379 380.763 89.2745 380.69 89.4138 380.618C89.4865 380.579 89.5592 380.539 89.6374 380.502C89.7178 380.459 89.7971 380.418 89.8792 380.379C90.0301 380.302 90.1855 380.23 90.3409 380.158C90.3593 380.148 90.3787 380.139 90.3988 380.132C90.5475 380.061 90.7008 379.995 90.8529 379.931C90.9543 379.883 91.0563 379.842 91.1572 379.804C91.2691 379.754 91.3816 379.71 91.4941 379.667C91.5586 379.64 91.622 379.616 91.6844 379.595C91.8344 379.537 91.9861 379.483 92.1377 379.429C92.2155 379.401 92.2961 379.374 92.3756 379.35C92.487 379.309 92.5973 379.272 92.7083 379.24C92.8148 379.204 92.9229 379.172 93.03 379.142C93.1249 379.111 93.2215 379.084 93.3143 379.059C93.4368 379.023 93.5583 378.989 93.6814 378.959C93.8046 378.929 93.9299 378.894 94.0558 378.865C94.1123 378.849 94.1697 378.835 94.2276 378.825C94.4032 378.784 94.5805 378.746 94.7568 378.711C94.9761 378.664 95.196 378.623 95.4166 378.589C95.5127 378.571 95.6078 378.556 95.7028 378.541C96.4783 378.423 97.26 378.353 98.0435 378.33C98.1542 378.325 98.2638 378.322 98.375 378.323C98.4951 378.318 98.6158 378.319 98.7365 378.321C98.8356 378.32 98.9375 378.321 99.0383 378.325C99.1495 378.326 99.2625 378.331 99.3727 378.334C99.7759 378.348 100.177 378.374 100.579 378.417C100.681 378.427 100.779 378.436 100.88 378.449C100.944 378.454 101.005 378.462 101.069 378.47L101.379 378.512C101.799 378.571 102.217 378.646 102.637 378.733L102.92 378.794C102.964 378.805 103.005 378.814 103.048 378.824C103.161 378.848 103.272 378.875 103.381 378.904C103.547 378.946 103.713 378.987 103.877 379.034C103.921 379.045 103.964 379.058 104.006 379.071C104.119 379.102 104.234 379.136 104.345 379.17C104.457 379.203 104.573 379.241 104.686 379.278C104.766 379.303 104.845 379.33 104.927 379.358C105.187 379.446 105.444 379.538 105.7 379.637C105.831 379.687 105.958 379.737 106.084 379.791C106.151 379.817 106.215 379.842 106.28 379.87C106.508 379.967 106.731 380.066 106.953 380.171L106.961 380.174C107.015 380.198 107.07 380.223 107.123 380.25C107.272 380.32 107.416 380.392 107.564 380.465C107.569 380.466 107.573 380.469 107.577 380.473C107.381 379.964 107.15 379.47 106.886 378.994L106.881 378.982C106.88 378.98 106.878 378.978 106.876 378.977C105.568 376.627 103.481 374.815 100.978 373.855Z" fill="#7CC242"/>
<path d="M105.7 379.638C102.377 378.355 98.7665 378.003 95.2504 378.617C91.7342 379.231 88.4435 380.788 85.7264 383.125C85.7207 383.127 85.7159 383.131 85.7126 383.136L85.7088 383.138C85.5748 383.253 85.4437 383.37 85.3126 383.487C85.1994 384.493 85.22 385.509 85.3738 386.508C85.484 387.231 85.6613 387.941 85.9032 388.629C86.0438 388.571 86.1833 388.515 86.3256 388.461L86.3294 388.459C86.3322 388.46 86.3361 388.458 86.34 388.457L86.341 388.454C90.9013 386.691 95.9404 386.689 100.484 388.448C102.442 389.202 104.268 390.264 105.893 391.594L105.892 391.597C105.898 391.599 105.902 391.604 105.908 391.606L105.907 391.609C105.91 391.612 105.915 391.615 105.919 391.617C106.067 391.738 106.214 391.862 106.357 391.988L107.564 388.857C108.608 386.156 108.613 383.166 107.577 380.473C107.375 380.37 107.17 380.271 106.961 380.175C106.551 379.981 106.131 379.804 105.7 379.638Z" fill="#7CC242"/>
<g style="mix-blend-mode:multiply" opacity="0.15">
<g style="mix-blend-mode:multiply" opacity="0.15">
<path d="M85.3738 386.508C85.484 387.231 85.6613 387.941 85.9032 388.629C89.2983 387.232 93.0068 386.806 96.6173 387.399C100.228 387.992 103.599 389.58 106.357 391.988C106.357 391.988 100.682 384.198 85.3738 386.508Z" fill="#7CC242"/>
</g>
</g>
<g style="mix-blend-mode:multiply" opacity="0.15">
<g style="mix-blend-mode:multiply" opacity="0.15">
<path d="M85.8664 381.004C85.593 381.809 85.4072 382.642 85.3122 383.486C88.0349 381.014 91.3815 379.345 94.9805 378.666C98.5795 377.986 102.29 378.323 105.7 379.637C106.339 379.883 106.966 380.162 107.577 380.473C107.577 380.473 98.2331 373.532 85.8664 381.004Z" fill="#7CC242"/>
</g>
</g>
<g style="mix-blend-mode:multiply" opacity="0.25">
<g style="mix-blend-mode:multiply" opacity="0.25">
<path d="M104.433 379.047C104.199 378.976 103.954 378.9 103.697 378.821C103.441 378.748 103.174 378.645 102.892 378.591C102.61 378.527 102.316 378.462 102.017 378.395C101.717 378.318 101.403 378.29 101.084 378.239C100.759 378.181 100.43 378.141 100.099 378.12C99.7638 378.096 99.4253 378.072 99.0774 378.047C98.7313 378.043 98.3821 378.047 98.0262 378.051C97.6718 378.043 97.3168 378.086 96.96 378.11L96.424 378.151C96.2448 378.169 96.0668 378.2 95.8883 378.224C95.5362 378.285 95.1751 378.319 94.8266 378.404C94.4775 378.482 94.1284 378.559 93.7821 378.638C93.1128 378.817 92.453 379.031 91.8056 379.279C91.2002 379.509 90.6066 379.77 90.027 380.06C89.7555 380.21 89.4918 380.356 89.2369 380.496C89.1108 380.566 88.9876 380.638 88.8654 380.706C88.7476 380.78 88.6316 380.858 88.5205 380.931C88.2944 381.078 88.0811 381.218 87.8754 381.354C87.6697 381.491 87.4935 381.641 87.3165 381.769C86.9732 382.039 86.6671 382.262 86.4368 382.479C86 382.867 85.745 383.107 85.7143 383.137C85.7176 383.132 85.7224 383.128 85.728 383.126C88.4451 380.789 91.7359 379.231 95.252 378.617C98.7682 378.003 102.379 378.356 105.702 379.638C106.133 379.804 106.552 379.982 106.963 380.176C106.897 380.14 106.593 379.985 106.104 379.745C105.96 379.68 105.819 379.6 105.633 379.528C105.462 379.459 105.274 379.383 105.072 379.302C104.87 379.221 104.659 379.137 104.433 379.047Z" fill="#7CC242"/>
</g>
</g>
<g style="mix-blend-mode:multiply" opacity="0.25">
<g style="mix-blend-mode:multiply" opacity="0.25">
<path d="M86.3385 388.454L86.3398 388.451C86.332 388.452 86.3307 388.455 86.3261 388.457C86.3294 388.458 86.334 388.456 86.3385 388.454Z" fill="#7CC242"/>
</g>
</g>
<g style="mix-blend-mode:multiply" opacity="0.25">
<g style="mix-blend-mode:multiply" opacity="0.25">
<path d="M105.906 391.606C105.901 391.602 105.896 391.598 105.891 391.594L105.89 391.597C105.895 391.602 105.9 391.604 105.905 391.609C105.909 391.612 105.913 391.615 105.918 391.617C105.914 391.613 105.91 391.61 105.906 391.606Z" fill="#7CC242"/>
</g>
</g>
<g style="mix-blend-mode:multiply" opacity="0.25">
<g style="mix-blend-mode:multiply" opacity="0.25">
<path d="M100.331 388.113C99.7397 387.88 99.1362 387.68 98.5228 387.513C97.8911 387.34 97.2508 387.199 96.6043 387.092C96.2766 387.04 95.9506 386.992 95.6237 386.962L95.1355 386.912C94.9726 386.904 94.8109 386.893 94.6481 386.885C94.4852 386.877 94.3235 386.866 94.1634 386.859C94.004 386.859 93.8417 386.858 93.6851 386.858C93.3645 386.854 93.0524 386.869 92.7431 386.885C92.4332 386.894 92.1318 386.923 91.8359 386.953C91.5401 386.984 91.2504 387.024 90.9718 387.067C90.6926 387.105 90.4224 387.152 90.1611 387.209C89.9009 387.263 89.6484 387.313 89.4105 387.376C89.1725 387.439 88.9416 387.491 88.728 387.557C88.5145 387.623 88.3103 387.689 88.1205 387.751C87.7398 387.877 87.4156 388.007 87.1458 388.102C86.6844 388.297 86.4017 388.427 86.34 388.454C90.9002 386.692 95.9393 386.69 100.482 388.448C102.441 389.202 104.267 390.264 105.892 391.594C105.864 391.567 105.814 391.522 105.744 391.457C105.634 391.353 105.47 391.2 105.249 391.018C104.643 390.509 104.003 390.042 103.334 389.621C102.886 389.336 102.424 389.075 101.951 388.837C101.425 388.565 100.884 388.323 100.331 388.113Z" fill="#7CC242"/>
</g>
</g>
<g style="mix-blend-mode:screen" opacity="0.4">
<g style="mix-blend-mode:screen" opacity="0.4">
<path d="M105.701 379.637C102.377 378.354 98.7667 378.002 95.2506 378.616C91.7344 379.23 88.4437 380.787 85.7265 383.124C85.7958 383.077 86.0751 382.882 86.5082 382.57C86.7515 382.377 87.0778 382.185 87.4409 381.955C87.7989 381.713 88.2289 381.483 88.6886 381.226C88.8059 381.162 88.9242 381.095 89.0426 381.028C89.1671 380.97 89.2927 380.909 89.4211 380.849C89.6773 380.722 89.9428 380.596 90.2144 380.463C90.7752 380.242 91.3532 379.975 91.9818 379.777C92.5961 379.541 93.2556 379.386 93.9185 379.198C94.2561 379.125 94.5936 379.053 94.9339 378.981C95.2736 378.903 95.6231 378.874 95.9674 378.817C96.1405 378.79 96.3128 378.757 96.4854 378.74L97.0064 378.696C97.3522 378.668 97.696 378.621 98.042 378.625C98.383 378.618 98.7239 378.611 99.0621 378.603C99.3983 378.617 99.7316 378.63 100.058 378.643C100.387 378.644 100.707 378.7 101.02 378.724C101.335 378.759 101.643 378.771 101.938 378.833C102.53 378.936 103.096 379.016 103.603 379.15C103.859 379.207 104.105 379.263 104.339 379.318C104.572 379.385 104.792 379.451 104.999 379.511C105.206 379.571 105.4 379.63 105.578 379.683C105.748 379.729 105.911 379.802 106.058 379.852C106.57 380.039 106.891 380.15 106.961 380.174C106.551 379.98 106.131 379.803 105.701 379.637Z" fill="#7CC242"/>
</g>
</g>
<g style="mix-blend-mode:screen" opacity="0.4">
<g style="mix-blend-mode:screen" opacity="0.4">
<path d="M100.482 388.446C95.9394 386.687 90.9002 386.689 86.34 388.452C86.3333 388.452 86.3323 388.455 86.3284 388.457C86.3312 388.458 86.335 388.456 86.3389 388.454C86.4068 388.436 86.7071 388.352 87.1868 388.209C87.4618 388.141 87.7919 388.046 88.178 387.963C88.5641 387.88 89.0016 387.789 89.4781 387.712C89.7162 387.665 89.965 387.632 90.2232 387.6C90.4814 387.567 90.7484 387.529 91.025 387.507C91.3009 387.478 91.5824 387.451 91.8735 387.441C92.1646 387.431 92.4583 387.406 92.7573 387.409C93.0595 387.403 93.3645 387.398 93.6741 387.415C93.9814 387.42 94.2949 387.435 94.6079 387.459C94.7668 387.469 94.9247 387.481 95.0837 387.491L95.5576 387.545C95.874 387.577 96.1895 387.628 96.5039 387.681C97.1336 387.779 97.7577 387.909 98.374 388.071C98.9823 388.231 99.5797 388.403 100.146 388.606C101.922 389.226 103.612 390.068 105.178 391.11C105.562 391.364 105.811 391.538 105.891 391.594C105.895 391.599 105.901 391.601 105.906 391.606C105.909 391.61 105.914 391.612 105.918 391.615C105.915 391.611 105.911 391.607 105.907 391.604C105.901 391.6 105.897 391.596 105.892 391.592C104.267 390.262 102.441 389.2 100.482 388.446Z" fill="#7CC242"/>
</g>
</g>
<g style="mix-blend-mode:multiply" opacity="0.25">
<g style="mix-blend-mode:multiply" opacity="0.25">
<path d="M100.975 373.856C98.1195 372.755 94.9402 372.844 92.1368 374.101C89.3333 375.358 87.1353 377.681 86.0261 380.56C86.0261 380.56 86.0712 380.468 86.1569 380.295C86.2382 380.117 86.3774 379.871 86.5492 379.558C86.7294 379.248 86.9604 378.88 87.2442 378.475C87.5705 378.029 87.9222 377.603 88.2976 377.199C88.7451 376.727 89.2287 376.292 89.7439 375.897C90.3182 375.463 90.9283 375.079 91.5676 374.75C92.2507 374.402 92.9651 374.12 93.701 373.909C94.4578 373.687 95.2358 373.548 96.0213 373.494C96.8073 373.432 97.5972 373.453 98.378 373.556C99.1342 373.656 99.8787 373.829 100.601 374.072C101.28 374.302 101.937 374.592 102.565 374.938C103.129 375.251 103.666 375.61 104.172 376.011C104.602 376.353 105.01 376.722 105.392 377.118C105.73 377.476 106.012 377.803 106.23 378.083C106.447 378.364 106.614 378.592 106.719 378.751C106.8 378.873 106.851 378.947 106.874 378.978C105.566 376.628 103.479 374.816 100.975 373.856Z" fill="#7CC242"/>
</g>
</g>
<path d="M292.296 86.7597C271.013 79.9197 247.409 113.092 237.007 133.345L231.809 128.11C270.289 58.1054 296.977 67.777 305.511 81.3633C346.822 136.345 316.505 253.588 292.366 318.625C280.445 340.404 279.507 338.239 280.528 334.435L291.05 301.607C343.512 146.092 308.745 92.0466 292.296 86.7597Z" fill="#F47A20"/>
<path d="M178.691 502.058C199.973 508.898 223.577 475.726 233.98 455.472L239.177 460.708C200.697 530.712 174.009 521.04 165.475 507.454C124.164 452.472 154.551 335.193 178.691 270.155C190.611 248.376 191.549 250.541 190.528 254.346L180.007 287.173C124.494 439.602 162.241 496.771 178.691 502.058Z" fill="#F47A20"/>
<circle r="11.5386" transform="matrix(0.604773 0.796397 0.796397 -0.604773 232.617 134.924)" fill="#F47A20"/>
<path d="M239.774 144.345C242.211 142.494 243.807 139.744 244.211 136.698C244.616 133.652 243.795 130.561 241.929 128.104C241.833 127.978 241.736 127.855 241.636 127.732C241.094 127.076 240.484 126.481 239.816 125.956C239.848 126.131 239.878 126.304 239.904 126.481C239.906 126.483 239.905 126.487 239.906 126.494L239.906 126.498C239.934 126.684 239.961 126.867 239.984 127.049C239.989 127.095 239.996 127.138 240.003 127.182C240.022 127.356 240.042 127.529 240.055 127.704C240.063 127.753 240.067 127.802 240.069 127.851C240.084 127.983 240.094 128.119 240.101 128.253C240.108 128.345 240.115 128.442 240.12 128.533C240.127 128.67 240.133 128.806 240.136 128.943C240.141 129.033 240.142 129.119 240.141 129.21C240.147 129.326 240.146 129.444 240.145 129.561C240.149 129.664 240.148 129.766 240.145 129.87C240.145 130.014 240.141 130.156 240.132 130.302C240.133 130.362 240.131 130.424 240.127 130.487C240.121 130.642 240.111 130.797 240.099 130.953C240.095 131.035 240.09 131.118 240.081 131.204C240.075 131.295 240.068 131.384 240.058 131.474C240.044 131.643 240.023 131.813 240.003 131.983C240.002 132.004 239.999 132.025 239.995 132.046C239.977 132.21 239.953 132.375 239.927 132.538C239.914 132.65 239.896 132.758 239.875 132.864C239.859 132.985 239.837 133.104 239.815 133.223C239.804 133.291 239.791 133.358 239.776 133.422C239.746 133.58 239.712 133.738 239.679 133.895C239.662 133.976 239.642 134.059 239.621 134.139C239.597 134.255 239.571 134.369 239.539 134.48C239.514 134.589 239.485 134.698 239.454 134.805C239.43 134.902 239.402 134.998 239.375 135.09C239.342 135.214 239.306 135.335 239.267 135.455C239.227 135.576 239.192 135.701 239.15 135.823C239.134 135.88 239.115 135.936 239.094 135.99C239.037 136.161 238.976 136.332 238.913 136.501C238.838 136.712 238.757 136.92 238.67 137.126C238.634 137.217 238.597 137.306 238.56 137.394C238.253 138.116 237.902 138.818 237.509 139.496C237.455 139.594 237.4 139.688 237.341 139.782C237.282 139.887 237.217 139.989 237.152 140.091C237.101 140.176 237.047 140.262 236.991 140.346C236.931 140.44 236.868 140.533 236.806 140.625C236.583 140.961 236.349 141.289 236.102 141.608C236.04 141.689 235.981 141.768 235.917 141.847C235.878 141.899 235.84 141.947 235.799 141.997L235.601 142.238C235.329 142.565 235.046 142.881 234.751 143.192L234.551 143.401C234.519 143.433 234.489 143.463 234.457 143.494C234.378 143.577 234.297 143.658 234.214 143.736C234.092 143.855 233.969 143.974 233.843 144.089C233.811 144.121 233.777 144.15 233.744 144.18C233.659 144.259 233.569 144.339 233.482 144.416C233.395 144.493 233.301 144.572 233.21 144.649C233.147 144.704 233.083 144.757 233.016 144.811C232.805 144.987 232.59 145.157 232.372 145.323C232.261 145.407 232.152 145.49 232.039 145.568C231.982 145.612 231.927 145.653 231.869 145.694C231.666 145.836 231.465 145.974 231.259 146.108L231.252 146.113C231.203 146.147 231.154 146.18 231.103 146.211C230.965 146.301 230.828 146.386 230.688 146.473C230.684 146.476 230.68 146.479 230.675 146.48C231.21 146.581 231.752 146.644 232.296 146.67L232.308 146.672C232.311 146.672 232.313 146.671 232.315 146.67C235.002 146.793 237.641 145.971 239.774 144.345Z" fill="#F47A20"/>
<path d="M232.372 145.322C235.21 143.169 237.408 140.283 238.734 136.969C240.06 133.655 240.465 130.037 239.906 126.497C239.907 126.491 239.906 126.485 239.904 126.48L239.904 126.476C239.876 126.301 239.846 126.128 239.816 125.955C239.019 125.33 238.144 124.813 237.213 124.419C236.541 124.133 235.843 123.91 235.131 123.754C235.106 123.905 235.08 124.052 235.052 124.202L235.051 124.206C235.049 124.208 235.048 124.212 235.048 124.217L235.05 124.219C234.152 129.025 231.505 133.313 227.62 136.253C225.949 137.522 224.086 138.517 222.1 139.201L222.098 139.198C222.094 139.202 222.087 139.203 222.082 139.207L222.081 139.204C222.076 139.206 222.071 139.208 222.067 139.211C221.886 139.273 221.703 139.333 221.521 139.388L223.55 142.061C225.298 144.369 227.839 145.945 230.675 146.479C230.869 146.361 231.061 146.239 231.252 146.112C231.633 145.865 232.005 145.601 232.372 145.322Z" fill="#F47A20"/>
<g style="mix-blend-mode:multiply" opacity="0.15">
<g style="mix-blend-mode:multiply" opacity="0.15">
<path d="M237.213 124.419C236.541 124.133 235.843 123.91 235.131 123.754C234.534 127.377 232.947 130.755 230.545 133.515C228.142 136.275 225.019 138.308 221.521 139.388C221.521 139.388 231.131 138.655 237.213 124.419Z" fill="#F47A20"/>
</g>
</g>
<g style="mix-blend-mode:multiply" opacity="0.15">
<g style="mix-blend-mode:multiply" opacity="0.15">
<path d="M241.636 127.732C241.094 127.076 240.484 126.481 239.816 125.956C240.487 129.572 240.147 133.296 238.834 136.715C237.52 140.133 235.283 143.113 232.372 145.323C231.826 145.737 231.26 146.123 230.675 146.48C230.675 146.48 241.491 142.18 241.636 127.732Z" fill="#F47A20"/>
</g>
</g>
<g style="mix-blend-mode:multiply" opacity="0.25">
<g style="mix-blend-mode:multiply" opacity="0.25">
<path d="M233.539 144.555C233.722 144.393 233.915 144.223 234.118 144.047C234.314 143.868 234.542 143.695 234.736 143.483C234.939 143.277 235.149 143.061 235.363 142.841C235.586 142.627 235.775 142.374 235.987 142.131C236.207 141.884 236.414 141.625 236.606 141.355C236.802 141.082 237 140.807 237.204 140.524C237.39 140.232 237.571 139.933 237.754 139.628C237.947 139.33 238.097 139.006 238.264 138.69L238.511 138.212C238.59 138.05 238.657 137.883 238.73 137.718C238.864 137.387 239.024 137.061 239.136 136.72C239.253 136.382 239.37 136.045 239.485 135.709C239.685 135.045 239.85 134.372 239.979 133.69C240.102 133.054 240.192 132.412 240.25 131.767C240.265 131.457 240.279 131.156 240.295 130.866C240.301 130.721 240.305 130.579 240.311 130.439C240.31 130.3 240.305 130.16 240.301 130.028C240.294 129.758 240.288 129.503 240.28 129.256C240.272 129.009 240.237 128.78 240.221 128.562C240.172 128.129 240.143 127.751 240.08 127.441C239.979 126.865 239.909 126.523 239.9 126.481C239.902 126.486 239.903 126.492 239.902 126.498C240.461 130.038 240.057 133.656 238.73 136.97C237.404 140.284 235.206 143.17 232.368 145.323C232.001 145.602 231.629 145.866 231.248 146.113C231.313 146.075 231.605 145.899 232.066 145.609C232.197 145.521 232.34 145.443 232.499 145.322C232.647 145.213 232.81 145.093 232.985 144.964C233.16 144.834 233.343 144.699 233.539 144.555Z" fill="#F47A20"/>
</g>
</g>
<g style="mix-blend-mode:multiply" opacity="0.25">
<g style="mix-blend-mode:multiply" opacity="0.25">
<path d="M235.047 124.219L235.049 124.221C235.053 124.214 235.051 124.212 235.051 124.207C235.049 124.209 235.048 124.214 235.047 124.219Z" fill="#F47A20"/>
</g>
</g>
<g style="mix-blend-mode:multiply" opacity="0.25">
<g style="mix-blend-mode:multiply" opacity="0.25">
<path d="M222.082 139.207C222.088 139.204 222.094 139.202 222.1 139.201L222.098 139.198C222.092 139.199 222.087 139.203 222.08 139.204C222.075 139.206 222.071 139.208 222.066 139.211C222.072 139.21 222.077 139.208 222.082 139.207Z" fill="#F47A20"/>
</g>
</g>
<g style="mix-blend-mode:multiply" opacity="0.25">
<g style="mix-blend-mode:multiply" opacity="0.25">
<path d="M227.985 136.302C228.495 135.922 228.982 135.513 229.446 135.079C229.926 134.633 230.382 134.162 230.813 133.668C231.03 133.417 231.242 133.165 231.439 132.903L231.738 132.514C231.83 132.379 231.925 132.247 232.017 132.113C232.11 131.979 232.204 131.847 232.294 131.714C232.378 131.579 232.465 131.442 232.546 131.308C232.719 131.038 232.87 130.764 233.019 130.493C233.174 130.224 233.308 129.953 233.438 129.685C233.567 129.417 233.686 129.15 233.795 128.89C233.91 128.633 234.012 128.378 234.101 128.126C234.192 127.876 234.281 127.635 234.353 127.4C234.425 127.164 234.502 126.94 234.558 126.724C234.614 126.508 234.665 126.299 234.713 126.105C234.805 125.715 234.865 125.371 234.926 125.091C235.002 124.596 235.041 124.288 235.05 124.221C234.152 129.027 231.505 133.314 227.621 136.255C225.95 137.524 224.086 138.519 222.101 139.203C222.138 139.193 222.202 139.174 222.295 139.149C222.441 139.11 222.658 139.051 222.928 138.958C223.68 138.711 224.414 138.412 225.124 138.064C225.601 137.832 226.067 137.577 226.518 137.299C227.026 136.995 227.516 136.662 227.985 136.302Z" fill="#F47A20"/>
</g>
</g>
<g style="mix-blend-mode:screen" opacity="0.4">
<g style="mix-blend-mode:screen" opacity="0.4">
<path d="M232.371 145.325C235.209 143.172 237.407 140.286 238.733 136.972C240.059 133.658 240.464 130.04 239.905 126.5C239.908 126.584 239.927 126.924 239.965 127.456C240.001 127.764 239.993 128.143 239.998 128.573C240.016 129.005 239.985 129.491 239.962 130.017C239.955 130.151 239.95 130.287 239.945 130.423C239.929 130.559 239.914 130.698 239.898 130.839C239.871 131.123 239.838 131.415 239.809 131.717C239.703 132.31 239.625 132.942 239.464 133.581C239.342 134.227 239.126 134.869 238.938 135.532C238.822 135.858 238.707 136.183 238.589 136.51C238.477 136.84 238.318 137.153 238.185 137.476C238.117 137.637 238.055 137.801 237.979 137.957L237.742 138.423C237.584 138.732 237.443 139.049 237.257 139.341C237.084 139.635 236.911 139.929 236.74 140.221C236.551 140.499 236.365 140.776 236.182 141.047C236.009 141.326 235.793 141.569 235.608 141.822C235.413 142.072 235.24 142.328 235.032 142.546C234.633 142.996 234.268 143.435 233.887 143.796C233.705 143.984 233.527 144.164 233.358 144.334C233.178 144.497 233.006 144.65 232.847 144.794C232.687 144.938 232.535 145.072 232.397 145.196C232.268 145.316 232.12 145.417 232 145.516C231.572 145.852 231.309 146.067 231.251 146.115C231.631 145.867 232.003 145.604 232.371 145.325Z" fill="#F47A20"/>
</g>
</g>
<g style="mix-blend-mode:screen" opacity="0.4">
<g style="mix-blend-mode:screen" opacity="0.4">
<path d="M227.621 136.254C231.505 133.314 234.153 129.026 235.05 124.22C235.053 124.214 235.052 124.212 235.052 124.207C235.05 124.209 235.049 124.213 235.049 124.218C235.029 124.285 234.942 124.585 234.812 125.068C234.725 125.338 234.632 125.668 234.5 126.04C234.367 126.412 234.215 126.833 234.03 127.278C233.945 127.506 233.842 127.734 233.734 127.971C233.625 128.208 233.518 128.455 233.391 128.702C233.271 128.952 233.145 129.205 233.001 129.458C232.857 129.711 232.724 129.974 232.564 130.227C232.41 130.487 232.254 130.749 232.077 131.004C231.911 131.262 231.733 131.521 231.548 131.775C231.456 131.905 231.363 132.033 231.271 132.163L230.976 132.538C230.782 132.79 230.573 133.032 230.362 133.271C229.948 133.755 229.51 134.218 229.048 134.657C228.592 135.09 228.131 135.508 227.661 135.884C226.2 137.067 224.596 138.063 222.886 138.847C222.468 139.04 222.19 139.161 222.099 139.199C222.093 139.201 222.088 139.204 222.081 139.205C222.076 139.207 222.072 139.209 222.068 139.212C222.073 139.211 222.078 139.21 222.083 139.208C222.089 139.205 222.095 139.203 222.101 139.202C224.087 138.518 225.95 137.523 227.621 136.254Z" fill="#F47A20"/>
</g>
</g>
<g style="mix-blend-mode:multiply" opacity="0.25">
<g style="mix-blend-mode:multiply" opacity="0.25">
<path d="M239.775 144.345C242.212 142.494 243.808 139.743 244.213 136.698C244.617 133.652 243.796 130.561 241.931 128.104C241.931 128.104 241.985 128.191 242.087 128.355C242.196 128.517 242.331 128.765 242.508 129.076C242.677 129.392 242.868 129.782 243.064 130.236C243.271 130.748 243.449 131.271 243.596 131.803C243.761 132.432 243.878 133.072 243.943 133.718C244.01 134.435 244.016 135.155 243.96 135.872C243.897 136.636 243.761 137.392 243.554 138.129C243.344 138.889 243.054 139.624 242.687 140.321C242.326 141.022 241.893 141.683 241.395 142.293C240.912 142.884 240.374 143.426 239.787 143.913C239.235 144.37 238.643 144.777 238.018 145.129C237.455 145.444 236.868 145.712 236.261 145.932C235.744 146.118 235.215 146.27 234.678 146.388C234.196 146.486 233.769 146.554 233.416 146.592C233.064 146.63 232.781 146.652 232.591 146.657C232.445 146.663 232.355 146.667 232.316 146.67C235.004 146.793 237.642 145.97 239.775 144.345Z" fill="#F47A20"/>
</g>
</g>
<circle r="11.5386" transform="matrix(-0.604774 -0.796397 -0.796397 0.604774 238.364 453.896)" fill="#F47A20"/>
<path d="M231.215 444.473C228.777 446.324 227.181 449.075 226.777 452.12C226.373 455.166 227.193 458.257 229.059 460.714C229.155 460.841 229.252 460.963 229.353 461.086C229.894 461.742 230.504 462.338 231.173 462.862C231.14 462.687 231.11 462.514 231.085 462.338C231.083 462.335 231.083 462.331 231.082 462.325L231.083 462.32C231.054 462.135 231.027 461.952 231.004 461.769C231 461.724 230.993 461.68 230.986 461.636C230.966 461.463 230.946 461.289 230.933 461.115C230.926 461.066 230.921 461.017 230.919 460.967C230.904 460.835 230.895 460.699 230.887 460.566C230.88 460.473 230.874 460.376 230.869 460.286C230.861 460.148 230.856 460.013 230.853 459.876C230.848 459.785 230.846 459.7 230.848 459.608C230.842 459.492 230.842 459.375 230.843 459.257C230.84 459.154 230.84 459.052 230.844 458.948C230.843 458.805 230.847 458.662 230.856 458.516C230.855 458.456 230.857 458.395 230.861 458.331C230.867 458.176 230.877 458.022 230.889 457.866C230.894 457.783 230.898 457.7 230.908 457.614C230.913 457.523 230.921 457.435 230.931 457.344C230.944 457.175 230.965 457.005 230.985 456.835C230.986 456.814 230.989 456.793 230.994 456.772C231.011 456.608 231.035 456.443 231.061 456.28C231.074 456.169 231.092 456.06 231.113 455.954C231.129 455.833 231.151 455.714 231.173 455.596C231.185 455.527 231.198 455.46 231.213 455.396C231.242 455.238 231.276 455.081 231.31 454.923C231.327 454.842 231.346 454.76 231.367 454.68C231.391 454.563 231.417 454.45 231.449 454.339C231.474 454.229 231.504 454.12 231.535 454.014C231.558 453.917 231.586 453.82 231.613 453.728C231.647 453.604 231.682 453.484 231.721 453.363C231.761 453.243 231.797 453.118 231.838 452.995C231.854 452.939 231.873 452.883 231.895 452.828C231.952 452.657 232.013 452.486 232.075 452.318C232.15 452.106 232.231 451.898 232.318 451.692C232.354 451.601 232.391 451.513 232.429 451.424C232.736 450.702 233.087 450 233.48 449.322C233.533 449.225 233.588 449.13 233.648 449.036C233.706 448.931 233.771 448.829 233.836 448.727C233.888 448.643 233.942 448.557 233.998 448.473C234.057 448.378 234.121 448.285 234.182 448.193C234.405 447.858 234.639 447.53 234.886 447.21C234.948 447.129 235.007 447.05 235.071 446.971C235.11 446.919 235.148 446.871 235.189 446.822L235.387 446.58C235.659 446.254 235.942 445.937 236.237 445.626L236.437 445.418C236.469 445.386 236.499 445.356 236.531 445.324C236.61 445.241 236.691 445.161 236.774 445.083C236.897 444.963 237.019 444.844 237.145 444.729C237.177 444.698 237.211 444.668 237.245 444.639C237.33 444.559 237.419 444.48 237.506 444.402C237.593 444.325 237.687 444.246 237.778 444.17C237.841 444.114 237.905 444.062 237.972 444.007C238.183 443.832 238.398 443.661 238.616 443.496C238.728 443.411 238.837 443.328 238.949 443.25C239.006 443.207 239.061 443.165 239.12 443.125C239.322 442.982 239.524 442.844 239.729 442.711L239.736 442.705C239.785 442.672 239.834 442.638 239.886 442.607C240.023 442.517 240.16 442.432 240.3 442.345C240.304 442.342 240.309 442.34 240.314 442.338C239.778 442.237 239.236 442.174 238.693 442.149L238.68 442.147C238.678 442.147 238.675 442.147 238.673 442.148C235.986 442.025 233.348 442.848 231.215 444.473Z" fill="#F47A20"/>
<path d="M238.616 443.496C235.778 445.649 233.58 448.535 232.254 451.849C230.928 455.163 230.523 458.781 231.083 462.321C231.081 462.327 231.082 462.333 231.085 462.338L231.084 462.343C231.112 462.517 231.142 462.69 231.173 462.863C231.969 463.488 232.844 464.005 233.775 464.399C234.448 464.685 235.145 464.908 235.858 465.064C235.882 464.914 235.908 464.766 235.936 464.616L235.937 464.612C235.939 464.61 235.94 464.606 235.94 464.602L235.939 464.599C236.836 459.794 239.484 455.506 243.368 452.566C245.039 451.296 246.902 450.301 248.888 449.618L248.89 449.62C248.895 449.616 248.901 449.615 248.906 449.612L248.908 449.614C248.913 449.613 248.917 449.61 248.921 449.607C249.102 449.545 249.285 449.486 249.467 449.43L247.438 446.758C245.69 444.45 243.149 442.873 240.314 442.339C240.119 442.457 239.928 442.579 239.736 442.706C239.356 442.954 238.984 443.217 238.616 443.496Z" fill="#F47A20"/>
<g style="mix-blend-mode:multiply" opacity="0.15">
<g style="mix-blend-mode:multiply" opacity="0.15">
<path d="M233.775 464.399C234.448 464.685 235.145 464.908 235.858 465.064C236.454 461.442 238.041 458.063 240.444 455.303C242.846 452.544 245.969 450.511 249.467 449.43C249.467 449.43 239.857 450.163 233.775 464.399Z" fill="#F47A20"/>
</g>
</g>
<g style="mix-blend-mode:multiply" opacity="0.15">
<g style="mix-blend-mode:multiply" opacity="0.15">
<path d="M229.353 461.086C229.894 461.742 230.504 462.338 231.173 462.862C230.501 459.247 230.841 455.523 232.155 452.104C233.469 448.685 235.705 445.705 238.616 443.496C239.162 443.081 239.728 442.695 240.314 442.338C240.314 442.338 229.497 446.638 229.353 461.086Z" fill="#F47A20"/>
</g>
</g>
<g style="mix-blend-mode:multiply" opacity="0.25">
<g style="mix-blend-mode:multiply" opacity="0.25">
<path d="M237.446 444.264C237.262 444.426 237.069 444.595 236.867 444.771C236.67 444.951 236.442 445.124 236.248 445.335C236.046 445.542 235.836 445.758 235.621 445.977C235.399 446.191 235.209 446.444 234.998 446.688C234.777 446.934 234.571 447.193 234.379 447.463C234.183 447.737 233.984 448.012 233.78 448.295C233.594 448.587 233.414 448.886 233.23 449.191C233.037 449.488 232.888 449.813 232.72 450.129L232.473 450.606C232.394 450.768 232.327 450.936 232.254 451.101C232.121 451.432 231.96 451.757 231.849 452.098C231.731 452.436 231.614 452.774 231.499 453.11C231.299 453.773 231.134 454.447 231.005 455.128C230.883 455.764 230.793 456.406 230.735 457.052C230.719 457.361 230.705 457.662 230.69 457.953C230.683 458.097 230.68 458.24 230.674 458.38C230.674 458.518 230.679 458.658 230.683 458.791C230.69 459.061 230.697 459.316 230.704 459.562C230.712 459.809 230.748 460.038 230.764 460.256C230.813 460.69 230.842 461.067 230.905 461.377C231.005 461.953 231.075 462.296 231.084 462.338C231.082 462.332 231.081 462.326 231.083 462.32C230.523 458.78 230.928 455.162 232.254 451.848C233.58 448.534 235.778 445.648 238.616 443.496C238.984 443.216 239.356 442.953 239.736 442.705C239.671 442.743 239.379 442.92 238.918 443.209C238.787 443.298 238.645 443.376 238.486 443.496C238.337 443.606 238.174 443.726 237.999 443.855C237.824 443.984 237.641 444.119 237.446 444.264Z" fill="#F47A20"/>
</g>
</g>
<g style="mix-blend-mode:multiply" opacity="0.25">
<g style="mix-blend-mode:multiply" opacity="0.25">
<path d="M235.937 464.6L235.935 464.597C235.931 464.604 235.934 464.607 235.933 464.612C235.936 464.61 235.936 464.605 235.937 464.6Z" fill="#F47A20"/>
</g>
</g>
<g style="mix-blend-mode:multiply" opacity="0.25">
<g style="mix-blend-mode:multiply" opacity="0.25">
<path d="M248.902 449.612C248.896 449.614 248.89 449.616 248.884 449.618L248.886 449.62C248.893 449.619 248.898 449.615 248.904 449.614C248.909 449.613 248.914 449.61 248.918 449.607C248.913 449.609 248.907 449.61 248.902 449.612Z" fill="#F47A20"/>
</g>
</g>
<g style="mix-blend-mode:multiply" opacity="0.25">
<g style="mix-blend-mode:multiply" opacity="0.25">
<path d="M243.007 452.517C242.498 452.897 242.01 453.305 241.546 453.739C241.066 454.185 240.61 454.656 240.179 455.15C239.963 455.401 239.75 455.653 239.553 455.916L239.254 456.305C239.162 456.439 239.067 456.571 238.975 456.705C238.883 456.84 238.788 456.971 238.698 457.104C238.614 457.239 238.528 457.377 238.446 457.51C238.274 457.781 238.122 458.054 237.973 458.325C237.818 458.594 237.684 458.865 237.554 459.133C237.425 459.401 237.306 459.668 237.197 459.928C237.082 460.185 236.98 460.44 236.891 460.692C236.8 460.942 236.711 461.183 236.639 461.419C236.567 461.654 236.491 461.878 236.434 462.094C236.378 462.311 236.327 462.519 236.28 462.713C236.187 463.103 236.127 463.447 236.066 463.727C235.99 464.222 235.951 464.53 235.942 464.597C236.84 459.792 239.487 455.504 243.372 452.564C245.043 451.294 246.906 450.299 248.892 449.616C248.854 449.625 248.79 449.644 248.697 449.669C248.551 449.709 248.334 449.768 248.064 449.86C247.312 450.107 246.578 450.406 245.868 450.755C245.391 450.986 244.926 451.241 244.474 451.519C243.966 451.823 243.476 452.156 243.007 452.517Z" fill="#F47A20"/>
</g>
</g>
<g style="mix-blend-mode:screen" opacity="0.4">
<g style="mix-blend-mode:screen" opacity="0.4">
<path d="M238.617 443.496C235.78 445.649 233.581 448.535 232.255 451.849C230.929 455.162 230.524 458.781 231.084 462.321C231.08 462.237 231.061 461.897 231.023 461.364C230.987 461.056 230.995 460.677 230.99 460.247C230.973 459.816 231.003 459.329 231.026 458.803C231.033 458.669 231.038 458.534 231.044 458.398C231.06 458.261 231.074 458.122 231.09 457.981C231.117 457.697 231.15 457.405 231.179 457.104C231.286 456.51 231.363 455.879 231.525 455.24C231.647 454.593 231.862 453.951 232.05 453.288C232.166 452.963 232.282 452.637 232.4 452.31C232.512 451.98 232.671 451.667 232.803 451.344C232.871 451.183 232.934 451.019 233.01 450.863L233.246 450.397C233.405 450.088 233.545 449.771 233.731 449.479C233.904 449.185 234.078 448.892 234.248 448.6C234.437 448.321 234.623 448.044 234.806 447.773C234.979 447.494 235.195 447.252 235.38 446.998C235.575 446.748 235.748 446.493 235.956 446.274C236.355 445.824 236.72 445.385 237.101 445.024C237.284 444.837 237.461 444.657 237.631 444.486C237.81 444.324 237.982 444.171 238.142 444.027C238.302 443.883 238.454 443.748 238.592 443.625C238.721 443.504 238.868 443.403 238.988 443.305C239.417 442.968 239.68 442.753 239.737 442.706C239.357 442.953 238.985 443.217 238.617 443.496Z" fill="#F47A20"/>
</g>
</g>
<g style="mix-blend-mode:screen" opacity="0.4">
<g style="mix-blend-mode:screen" opacity="0.4">
<path d="M243.367 452.565C239.483 455.505 236.836 459.793 235.938 464.598C235.935 464.604 235.937 464.607 235.936 464.611C235.939 464.609 235.939 464.605 235.94 464.601C235.959 464.533 236.046 464.234 236.176 463.75C236.263 463.481 236.356 463.15 236.489 462.778C236.621 462.406 236.773 461.986 236.958 461.54C237.044 461.313 237.146 461.084 237.255 460.847C237.363 460.611 237.47 460.363 237.597 460.116C237.717 459.866 237.843 459.613 237.987 459.36C238.132 459.107 238.265 458.844 238.424 458.591C238.578 458.331 238.734 458.069 238.911 457.814C239.078 457.556 239.255 457.297 239.44 457.043C239.532 456.913 239.626 456.786 239.717 456.655L240.012 456.281C240.206 456.028 240.415 455.787 240.626 455.547C241.04 455.063 241.479 454.6 241.94 454.161C242.396 453.728 242.857 453.31 243.327 452.935C244.788 451.751 246.392 450.755 248.102 449.971C248.52 449.778 248.799 449.658 248.889 449.619C248.896 449.618 248.9 449.614 248.907 449.613C248.912 449.611 248.917 449.609 248.921 449.606C248.915 449.607 248.91 449.609 248.905 449.611C248.899 449.613 248.893 449.615 248.887 449.617C246.901 450.3 245.038 451.295 243.367 452.565Z" fill="#F47A20"/>
</g>
</g>
<g style="mix-blend-mode:multiply" opacity="0.25">
<g style="mix-blend-mode:multiply" opacity="0.25">
<path d="M231.209 444.473C228.772 446.324 227.176 449.075 226.772 452.121C226.367 455.166 227.188 458.258 229.054 460.714C229.054 460.714 228.999 460.628 228.897 460.464C228.789 460.301 228.653 460.054 228.477 459.743C228.308 459.427 228.116 459.037 227.921 458.582C227.713 458.07 227.536 457.547 227.389 457.015C227.223 456.387 227.107 455.746 227.042 455.1C226.974 454.384 226.968 453.663 227.025 452.946C227.088 452.182 227.224 451.426 227.431 450.689C227.64 449.929 227.931 449.194 228.298 448.497C228.658 447.796 229.091 447.135 229.589 446.525C230.072 445.935 230.61 445.392 231.197 444.905C231.75 444.449 232.342 444.042 232.966 443.69C233.529 443.375 234.117 443.106 234.723 442.887C235.24 442.7 235.769 442.548 236.306 442.431C236.789 442.332 237.216 442.264 237.568 442.226C237.921 442.188 238.203 442.166 238.394 442.161C238.539 442.156 238.629 442.151 238.668 442.148C235.981 442.026 233.342 442.848 231.209 444.473Z" fill="#F47A20"/>
</g>
</g>
<path d="M408.578 434.302C423.216 417.407 401.958 382.685 387.407 365.173L394.262 362.445C443.567 425.296 424.204 446.053 408.359 448.575C341.581 465.014 241.683 391.217 191.323 343.505C175.963 323.999 178.322 323.985 181.422 326.416L207.493 348.969C325.94 459.813 397.263 447.361 408.578 434.302Z" fill="#2B2875"/>
<path d="M71.1011 166.926C56.4627 183.821 77.7204 218.544 92.2718 236.056L85.4173 238.784C36.1118 175.933 55.4749 155.176 71.3197 152.653C138.098 136.214 230.532 200.704 280.892 248.416C296.251 267.923 293.892 267.937 290.793 265.506L264.721 242.953C143.33 140.22 82.4158 153.868 71.1011 166.926Z" fill="#2B2875"/>
<circle r="11.5386" transform="matrix(-0.969776 0.243998 0.243998 0.969776 387.672 360.519)" fill="#2B2875"/>
<path d="M376.202 363.405C376.949 366.373 378.853 368.92 381.496 370.487C384.14 372.053 387.305 372.51 390.296 371.758C390.451 371.719 390.601 371.678 390.754 371.633C391.57 371.392 392.357 371.065 393.102 370.656C392.928 370.616 392.757 370.577 392.584 370.531C392.582 370.532 392.578 370.529 392.571 370.528L392.568 370.526C392.386 370.48 392.207 370.432 392.03 370.382C391.986 370.368 391.943 370.357 391.901 370.347C391.733 370.297 391.566 370.247 391.4 370.19C391.352 370.178 391.305 370.163 391.259 370.146C391.132 370.107 391.003 370.063 390.877 370.018C390.789 369.988 390.697 369.956 390.612 369.925C390.483 369.878 390.356 369.83 390.229 369.779C390.144 369.748 390.064 369.716 389.981 369.678C389.872 369.638 389.764 369.592 389.656 369.545C389.56 369.508 389.466 369.467 389.372 369.423C389.24 369.367 389.111 369.308 388.98 369.242C388.924 369.219 388.868 369.194 388.812 369.165C388.671 369.099 388.533 369.029 388.394 368.957C388.32 368.92 388.246 368.884 388.17 368.841C388.088 368.8 388.01 368.759 387.931 368.714C387.781 368.635 387.632 368.55 387.484 368.464C387.465 368.455 387.446 368.444 387.429 368.432C387.285 368.351 387.143 368.264 387.003 368.177C386.906 368.121 386.813 368.062 386.724 368.001C386.618 367.939 386.518 367.872 386.417 367.805C386.359 367.768 386.303 367.73 386.249 367.691C386.116 367.602 385.984 367.509 385.852 367.416C385.785 367.369 385.716 367.318 385.651 367.267C385.553 367.2 385.459 367.131 385.369 367.059C385.278 366.992 385.19 366.923 385.104 366.852C385.024 366.792 384.946 366.729 384.872 366.668C384.771 366.589 384.674 366.509 384.579 366.425C384.483 366.342 384.382 366.26 384.286 366.174C384.24 366.137 384.196 366.098 384.155 366.056C384.019 365.937 383.886 365.814 383.756 365.69C383.591 365.538 383.431 365.382 383.276 365.221C383.206 365.153 383.139 365.083 383.072 365.014C382.529 364.449 382.02 363.851 381.551 363.223C381.482 363.136 381.417 363.048 381.354 362.956C381.28 362.861 381.212 362.762 381.143 362.662C381.086 362.582 381.028 362.498 380.973 362.414C380.909 362.322 380.848 362.227 380.788 362.135C380.567 361.797 380.357 361.454 380.16 361.101C380.109 361.013 380.06 360.927 380.013 360.837C379.98 360.781 379.951 360.727 379.921 360.67L379.777 360.393C379.583 360.015 379.403 359.631 379.232 359.237L379.119 358.971C379.102 358.929 379.086 358.89 379.07 358.848C379.025 358.743 378.982 358.637 378.943 358.53C378.881 358.371 378.82 358.211 378.764 358.05C378.747 358.008 378.733 357.966 378.719 357.923C378.679 357.814 378.641 357.7 378.604 357.59C378.567 357.479 378.532 357.362 378.497 357.248C378.471 357.169 378.447 357.089 378.423 357.006C378.345 356.743 378.272 356.479 378.205 356.213C378.171 356.078 378.138 355.945 378.11 355.81C378.093 355.741 378.076 355.675 378.062 355.605C378.01 355.363 377.962 355.123 377.92 354.882L377.918 354.873C377.906 354.815 377.895 354.756 377.886 354.697C377.858 354.535 377.833 354.376 377.807 354.213C377.806 354.208 377.806 354.203 377.807 354.198C377.504 354.651 377.233 355.124 376.996 355.615L376.99 355.626C376.989 355.628 376.988 355.63 376.988 355.632C375.822 358.056 375.543 360.806 376.202 363.405Z" fill="#2B2875"/>
<path d="M378.205 356.212C379.073 359.667 380.865 362.821 383.394 365.34C385.922 367.86 389.092 369.651 392.567 370.525C392.572 370.528 392.578 370.53 392.584 370.53L392.588 370.532C392.759 370.574 392.93 370.614 393.101 370.654C393.989 370.167 394.807 369.564 395.535 368.863C396.062 368.356 396.54 367.802 396.963 367.208C396.835 367.126 396.709 367.045 396.582 366.96L396.579 366.958C396.578 366.955 396.574 366.952 396.571 366.95L396.568 366.951C392.499 364.24 389.593 360.124 388.412 355.397C387.899 353.362 387.714 351.258 387.865 349.163L387.867 349.163C387.866 349.157 387.867 349.15 387.866 349.145L387.869 349.144C387.869 349.139 387.869 349.134 387.868 349.129C387.882 348.938 387.899 348.746 387.919 348.557L384.665 349.376C381.856 350.078 379.41 351.798 377.806 354.197C377.838 354.422 377.876 354.646 377.918 354.872C377.996 355.319 378.093 355.764 378.205 356.212Z" fill="#2B2875"/>
<g style="mix-blend-mode:multiply" opacity="0.15">
<g style="mix-blend-mode:multiply" opacity="0.15">
<path d="M395.535 368.865C396.062 368.358 396.54 367.804 396.963 367.21C393.865 365.24 391.379 362.455 389.783 359.163C388.187 355.871 387.541 352.2 387.919 348.559C387.919 348.559 384.824 357.687 395.535 368.865Z" fill="#2B2875"/>
</g>
</g>
<g style="mix-blend-mode:multiply" opacity="0.15">
<g style="mix-blend-mode:multiply" opacity="0.15">
<path d="M390.754 371.633C391.57 371.392 392.357 371.065 393.102 370.656C389.512 369.856 386.22 368.082 383.59 365.533C380.961 362.983 379.097 359.758 378.205 356.213C378.038 355.549 377.905 354.876 377.807 354.198C377.807 354.198 377.52 365.834 390.754 371.633Z" fill="#2B2875"/>
</g>
</g>
<g style="mix-blend-mode:multiply" opacity="0.25">
<g style="mix-blend-mode:multiply" opacity="0.25">
<path d="M378.451 357.59C378.528 357.823 378.608 358.067 378.691 358.322C378.779 358.573 378.848 358.85 378.967 359.112C379.077 359.379 379.194 359.657 379.311 359.941C379.421 360.229 379.58 360.503 379.721 360.793C379.861 361.092 380.018 361.384 380.191 361.666C380.366 361.954 380.541 362.244 380.721 362.543C380.917 362.828 381.121 363.112 381.33 363.4C381.528 363.694 381.768 363.959 381.993 364.237L382.335 364.652C382.453 364.788 382.581 364.915 382.704 365.047C382.956 365.3 383.193 365.575 383.462 365.811C383.727 366.052 383.992 366.292 384.256 366.53C384.788 366.974 385.343 367.39 385.919 367.776C386.456 368.137 387.011 368.472 387.583 368.779C387.861 368.914 388.133 369.046 388.394 369.173C388.524 369.236 388.653 369.295 388.78 369.356C388.908 369.409 389.038 369.46 389.162 369.508C389.413 369.608 389.65 369.702 389.88 369.791C390.11 369.881 390.335 369.938 390.541 370.009C390.96 370.134 391.318 370.255 391.628 370.319C392.197 370.452 392.54 370.522 392.582 370.53C392.576 370.53 392.57 370.528 392.565 370.525C389.09 369.651 385.92 367.86 383.392 365.341C380.863 362.821 379.071 359.667 378.203 356.212C378.09 355.765 377.994 355.319 377.915 354.872C377.925 354.947 377.973 355.285 378.058 355.822C378.088 355.977 378.104 356.139 378.153 356.332C378.195 356.512 378.241 356.709 378.292 356.921C378.342 357.132 378.394 357.354 378.451 357.59Z" fill="#2B2875"/>
</g>
</g>
<g style="mix-blend-mode:multiply" opacity="0.25">
<g style="mix-blend-mode:multiply" opacity="0.25">
<path d="M396.571 366.953L396.568 366.954C396.573 366.96 396.576 366.959 396.581 366.961C396.58 366.958 396.575 366.955 396.571 366.953Z" fill="#2B2875"/>
</g>
</g>
<g style="mix-blend-mode:multiply" opacity="0.25">
<g style="mix-blend-mode:multiply" opacity="0.25">
<path d="M387.869 349.145C387.869 349.151 387.868 349.158 387.867 349.164L387.87 349.163C387.872 349.157 387.87 349.151 387.872 349.144C387.872 349.139 387.872 349.134 387.871 349.129C387.87 349.134 387.869 349.14 387.869 349.145Z" fill="#2B2875"/>
</g>
</g>
<g style="mix-blend-mode:multiply" opacity="0.25">
<g style="mix-blend-mode:multiply" opacity="0.25">
<path d="M388.221 355.713C388.371 356.331 388.555 356.94 388.772 357.537C388.995 358.153 389.249 358.757 389.534 359.347C389.68 359.645 389.829 359.939 389.993 360.223L390.234 360.651C390.321 360.789 390.405 360.927 390.493 361.065C390.58 361.203 390.664 361.341 390.751 361.476C390.842 361.606 390.935 361.74 391.026 361.867C391.207 362.132 391.399 362.378 391.59 362.622C391.776 362.87 391.973 363.1 392.169 363.324C392.365 363.548 392.564 363.762 392.76 363.964C392.951 364.171 393.146 364.365 393.343 364.545C393.537 364.727 393.724 364.904 393.912 365.062C394.101 365.221 394.277 365.379 394.453 365.516C394.63 365.652 394.802 365.781 394.962 365.901C395.285 366.139 395.577 366.329 395.811 366.495C396.236 366.759 396.505 366.916 396.563 366.95C392.494 364.239 389.588 360.123 388.407 355.396C387.894 353.361 387.71 351.257 387.86 349.162C387.854 349.201 387.846 349.267 387.833 349.363C387.812 349.512 387.781 349.735 387.76 350.02C387.693 350.808 387.68 351.601 387.722 352.391C387.748 352.92 387.8 353.448 387.879 353.972C387.959 354.559 388.073 355.14 388.221 355.713Z" fill="#2B2875"/>
</g>
</g>
<g style="mix-blend-mode:screen" opacity="0.4">
<g style="mix-blend-mode:screen" opacity="0.4">
<path d="M378.202 356.213C379.07 359.667 380.862 362.821 383.391 365.341C385.919 367.86 389.089 369.652 392.564 370.525C392.486 370.496 392.166 370.38 391.661 370.206C391.363 370.118 391.018 369.962 390.62 369.798C390.217 369.645 389.781 369.426 389.306 369.199C389.186 369.14 389.063 369.082 388.94 369.024C388.821 368.955 388.698 368.888 388.575 368.818C388.324 368.681 388.068 368.537 387.803 368.392C387.299 368.061 386.748 367.742 386.224 367.343C385.677 366.977 385.17 366.527 384.634 366.094C384.38 365.86 384.126 365.626 383.872 365.389C383.612 365.156 383.387 364.888 383.142 364.639C383.02 364.513 382.894 364.391 382.78 364.26L382.444 363.86C382.222 363.593 381.985 363.34 381.79 363.054C381.587 362.779 381.385 362.505 381.184 362.233C381.001 361.95 380.819 361.671 380.642 361.396C380.454 361.127 380.315 360.834 380.154 360.564C380.001 360.286 379.833 360.027 379.714 359.75C379.457 359.207 379.196 358.698 379.013 358.207C378.912 357.965 378.816 357.732 378.726 357.509C378.647 357.28 378.574 357.062 378.504 356.858C378.434 356.655 378.37 356.462 378.31 356.287C378.25 356.121 378.215 355.945 378.172 355.797C378.03 355.27 377.935 354.944 377.914 354.873C377.993 355.32 378.089 355.765 378.202 356.213Z" fill="#2B2875"/>
</g>
</g>
<g style="mix-blend-mode:screen" opacity="0.4">
<g style="mix-blend-mode:screen" opacity="0.4">
<path d="M388.406 355.399C389.588 360.125 392.494 364.242 396.562 366.953C396.567 366.958 396.57 366.957 396.573 366.959C396.573 366.956 396.569 366.954 396.565 366.952C396.511 366.907 396.269 366.71 395.876 366.401C395.662 366.215 395.394 366 395.104 365.732C394.814 365.464 394.486 365.16 394.149 364.815C393.974 364.647 393.803 364.463 393.628 364.27C393.453 364.078 393.267 363.882 393.09 363.669C392.907 363.46 392.723 363.245 392.547 363.013C392.371 362.781 392.181 362.556 392.011 362.31C391.832 362.066 391.653 361.82 391.488 361.557C391.315 361.303 391.147 361.038 390.986 360.768C390.902 360.633 390.822 360.497 390.738 360.361L390.509 359.943C390.353 359.666 390.212 359.379 390.075 359.091C389.792 358.52 389.538 357.935 389.315 357.338C389.096 356.749 388.892 356.161 388.731 355.581C388.215 353.773 387.928 351.907 387.878 350.026C387.864 349.566 387.862 349.263 387.862 349.164C387.864 349.158 387.862 349.152 387.864 349.146C387.864 349.141 387.864 349.135 387.863 349.131C387.862 349.136 387.861 349.141 387.861 349.146C387.861 349.153 387.86 349.159 387.859 349.165C387.709 351.26 387.894 353.364 388.406 355.399Z" fill="#2B2875"/>
</g>
</g>
<g style="mix-blend-mode:multiply" opacity="0.25">
<g style="mix-blend-mode:multiply" opacity="0.25">
<path d="M376.201 363.405C376.948 366.373 378.852 368.92 381.495 370.487C384.139 372.053 387.304 372.51 390.295 371.758C390.295 371.758 390.194 371.774 390.004 371.804C389.812 371.84 389.531 371.867 389.176 371.907C388.818 371.939 388.385 371.962 387.89 371.964C387.338 371.954 386.787 371.912 386.24 371.839C385.597 371.745 384.962 371.6 384.342 371.407C383.657 371.188 382.991 370.911 382.354 370.578C381.676 370.22 381.034 369.799 380.437 369.319C379.82 368.828 379.258 368.273 378.761 367.662C378.257 367.055 377.819 366.398 377.453 365.7C377.099 365.025 376.811 364.317 376.593 363.586C376.39 362.899 376.248 362.195 376.169 361.482C376.1 360.841 376.083 360.195 376.119 359.551C376.151 359.002 376.218 358.456 376.321 357.916C376.419 357.433 376.524 357.014 376.628 356.675C376.731 356.336 376.821 356.067 376.891 355.89C376.944 355.754 376.975 355.669 376.987 355.632C375.821 358.056 375.542 360.806 376.201 363.405Z" fill="#2B2875"/>
</g>
</g>
<circle r="11.5386" transform="matrix(0.969776 -0.243998 -0.243998 -0.969776 92.0033 240.714)" fill="#2B2875"/>
<path d="M103.474 237.829C102.727 234.861 100.823 232.314 98.1794 230.748C95.5362 229.181 92.3707 228.724 89.3794 229.477C89.2251 229.516 89.0745 229.557 88.9217 229.601C88.1061 229.842 87.319 230.17 86.574 230.579C86.7479 230.618 86.9189 230.658 87.0913 230.703C87.0942 230.703 87.0979 230.705 87.1044 230.706L87.1081 230.708C87.2899 230.755 87.4689 230.802 87.6457 230.853C87.6894 230.866 87.7323 230.877 87.7752 230.888C87.9425 230.938 88.1099 230.988 88.2758 231.044C88.3236 231.056 88.3707 231.071 88.4169 231.088C88.5442 231.127 88.673 231.171 88.7988 231.217C88.8869 231.247 88.9785 231.279 89.0637 231.31C89.1932 231.357 89.3197 231.405 89.4471 231.456C89.5322 231.486 89.6115 231.519 89.6951 231.556C89.8043 231.596 89.9119 231.643 90.0196 231.689C90.1156 231.727 90.2095 231.767 90.3041 231.811C90.4357 231.867 90.5652 231.927 90.6962 231.992C90.7515 232.015 90.8075 232.041 90.8642 232.069C91.0046 232.135 91.1428 232.205 91.2818 232.278C91.356 232.314 91.4302 232.351 91.5059 232.393C91.5873 232.434 91.6659 232.476 91.7452 232.52C91.8951 232.599 92.0435 232.685 92.1919 232.77C92.2111 232.779 92.2294 232.79 92.2464 232.803C92.3905 232.883 92.533 232.97 92.6727 233.058C92.7702 233.113 92.8626 233.173 92.952 233.233C93.0575 233.295 93.1579 233.362 93.2583 233.429C93.3172 233.467 93.3732 233.505 93.4263 233.544C93.5602 233.633 93.6918 233.725 93.8235 233.818C93.8912 233.866 93.9595 233.916 94.025 233.967C94.1225 234.035 94.217 234.103 94.3065 234.176C94.3974 234.242 94.4862 234.312 94.572 234.382C94.652 234.442 94.7299 234.505 94.8041 234.566C94.9044 234.646 95.0019 234.725 95.0972 234.809C95.1925 234.892 95.2936 234.974 95.3896 235.061C95.4357 235.097 95.4796 235.137 95.5213 235.178C95.6566 235.298 95.7897 235.421 95.9199 235.545C96.085 235.697 96.245 235.853 96.3999 236.013C96.4697 236.082 96.5367 236.151 96.6036 236.22C97.1472 236.786 97.6554 237.384 98.1251 238.011C98.1935 238.098 98.2589 238.186 98.3222 238.278C98.3956 238.373 98.464 238.473 98.5324 238.572C98.5898 238.653 98.648 238.736 98.7033 238.821C98.7665 238.912 98.8276 239.007 98.888 239.1C99.109 239.437 99.3192 239.78 99.5163 240.133C99.5664 240.222 99.6159 240.308 99.6631 240.397C99.6959 240.453 99.7249 240.507 99.7548 240.564L99.8987 240.841C100.093 241.219 100.273 241.604 100.443 241.997L100.557 242.263C100.573 242.305 100.589 242.344 100.606 242.386C100.651 242.491 100.693 242.597 100.733 242.704C100.794 242.864 100.856 243.023 100.912 243.184C100.929 243.226 100.943 243.268 100.957 243.311C100.996 243.421 101.034 243.534 101.071 243.645C101.108 243.755 101.144 243.872 101.179 243.986C101.205 244.065 101.228 244.145 101.252 244.228C101.331 244.491 101.403 244.755 101.47 245.021C101.504 245.157 101.538 245.29 101.566 245.424C101.583 245.493 101.6 245.56 101.614 245.63C101.666 245.872 101.714 246.111 101.756 246.353L101.758 246.361C101.77 246.42 101.781 246.478 101.79 246.537C101.818 246.699 101.843 246.859 101.868 247.021C101.87 247.026 101.87 247.031 101.869 247.036C102.172 246.583 102.443 246.11 102.679 245.62L102.686 245.609C102.687 245.607 102.688 245.605 102.687 245.602C103.854 243.178 104.132 240.429 103.474 237.829Z" fill="#2B2875"/>
<path d="M101.471 245.02C100.603 241.566 98.8103 238.412 96.282 235.892C93.7538 233.373 90.5841 231.581 87.1084 230.708C87.1035 230.704 87.0976 230.703 87.0916 230.703L87.088 230.701C86.9163 230.658 86.7453 230.618 86.5744 230.578C85.6869 231.066 84.8685 231.668 84.1406 232.37C83.6137 232.876 83.1356 233.43 82.7124 234.025C82.8412 234.106 82.967 234.188 83.0936 234.273L83.0972 234.275C83.0979 234.278 83.1016 234.28 83.1052 234.282L83.1081 234.281C87.1769 236.992 90.0829 241.109 91.2642 245.835C91.7767 247.87 91.9613 249.974 91.8113 252.069L91.8084 252.07C91.8098 252.075 91.8084 252.082 91.8098 252.088L91.8069 252.089C91.8064 252.094 91.8066 252.099 91.8076 252.104C91.7937 252.294 91.7769 252.486 91.7565 252.675L95.0107 251.857C97.8195 251.154 100.266 249.434 101.869 247.036C101.837 246.81 101.8 246.587 101.758 246.361C101.68 245.914 101.583 245.468 101.471 245.02Z" fill="#2B2875"/>
<g style="mix-blend-mode:multiply" opacity="0.15">
<g style="mix-blend-mode:multiply" opacity="0.15">
<path d="M84.1406 232.37C83.6137 232.876 83.1356 233.43 82.7124 234.025C85.811 235.994 88.2963 238.779 89.8928 242.071C91.4892 245.363 92.1343 249.034 91.7565 252.675C91.7565 252.675 94.8514 243.548 84.1406 232.37Z" fill="#2B2875"/>
</g>
</g>
<g style="mix-blend-mode:multiply" opacity="0.15">
<g style="mix-blend-mode:multiply" opacity="0.15">
<path d="M88.9256 229.601C88.11 229.842 87.3229 230.17 86.5779 230.579C90.1676 231.379 93.4599 233.152 96.0895 235.701C98.7191 238.251 100.583 241.477 101.474 245.021C101.641 245.686 101.774 246.358 101.873 247.036C101.873 247.036 102.16 235.4 88.9256 229.601Z" fill="#2B2875"/>
</g>
</g>
<g style="mix-blend-mode:multiply" opacity="0.25">
<g style="mix-blend-mode:multiply" opacity="0.25">
<path d="M101.225 243.644C101.148 243.412 101.068 243.168 100.985 242.912C100.897 242.661 100.828 242.384 100.709 242.122C100.599 241.855 100.482 241.577 100.364 241.294C100.255 241.005 100.096 240.732 99.9551 240.442C99.8148 240.142 99.6577 239.85 99.4846 239.568C99.3101 239.281 99.1349 238.99 98.9545 238.691C98.7589 238.406 98.5545 238.123 98.3458 237.834C98.148 237.54 97.908 237.275 97.6833 236.997L97.3407 236.583C97.2229 236.446 97.0949 236.319 96.972 236.187C96.7196 235.934 96.4832 235.659 96.2133 235.423C95.9486 235.183 95.6838 234.942 95.4198 234.705C94.888 234.261 94.3329 233.845 93.7569 233.459C93.2197 233.097 92.6645 232.762 92.0932 232.456C91.8146 232.32 91.5432 232.189 91.2821 232.061C91.1518 231.999 91.0224 231.939 90.8958 231.879C90.7677 231.825 90.6375 231.775 90.5138 231.726C90.2628 231.627 90.0257 231.533 89.7958 231.443C89.5659 231.354 89.3411 231.297 89.1345 231.226C88.7161 231.101 88.3575 230.979 88.0475 230.916C87.4786 230.783 87.1359 230.712 87.0937 230.704C87.0997 230.704 87.1055 230.706 87.1104 230.709C90.5861 231.583 93.7558 233.374 96.2841 235.894C98.8124 238.413 100.605 241.567 101.473 245.022C101.585 245.47 101.682 245.915 101.76 246.362C101.751 246.288 101.703 245.95 101.617 245.412C101.588 245.257 101.572 245.095 101.523 244.902C101.481 244.722 101.434 244.525 101.384 244.313C101.334 244.102 101.281 243.881 101.225 243.644Z" fill="#2B2875"/>
</g>
</g>
<g style="mix-blend-mode:multiply" opacity="0.25">
<g style="mix-blend-mode:multiply" opacity="0.25">
<path d="M83.1085 234.281L83.112 234.281C83.1068 234.275 83.1033 234.276 83.099 234.273C83.0999 234.276 83.1042 234.279 83.1085 234.281Z" fill="#2B2875"/>
</g>
</g>
<g style="mix-blend-mode:multiply" opacity="0.25">
<g style="mix-blend-mode:multiply" opacity="0.25">
<path d="M91.8108 252.089C91.8108 252.083 91.8113 252.077 91.8123 252.07L91.8094 252.071C91.8079 252.078 91.8093 252.084 91.8079 252.09C91.8073 252.095 91.8076 252.1 91.8086 252.105C91.8097 252.1 91.8104 252.095 91.8108 252.089Z" fill="#2B2875"/>
</g>
</g>
<g style="mix-blend-mode:multiply" opacity="0.25">
<g style="mix-blend-mode:multiply" opacity="0.25">
<path d="M91.4512 245.517C91.3013 244.9 91.1171 244.291 90.8996 243.694C90.6773 243.077 90.423 242.473 90.1377 241.883C89.9916 241.585 89.8433 241.291 89.6789 241.007L89.4382 240.579C89.351 240.442 89.2666 240.303 89.1793 240.165C89.0921 240.028 89.0077 239.889 88.9212 239.754C88.8296 239.624 88.7372 239.491 88.6463 239.363C88.4652 239.098 88.2732 238.852 88.0819 238.608C87.8958 238.36 87.6987 238.131 87.503 237.907C87.3074 237.683 87.1081 237.469 86.9117 237.266C86.7204 237.059 86.5262 236.866 86.3291 236.685C86.1349 236.504 85.9479 236.327 85.7596 236.168C85.5712 236.01 85.3951 235.851 85.2184 235.715C85.0416 235.578 84.8699 235.449 84.7099 235.33C84.3869 235.092 84.0945 234.901 83.861 234.736C83.4354 234.471 83.167 234.315 83.1088 234.28C87.1775 236.991 90.0836 241.108 91.2648 245.834C91.7774 247.869 91.962 249.973 91.812 252.068C91.8178 252.03 91.8258 251.963 91.8389 251.868C91.8601 251.718 91.8907 251.495 91.9119 251.211C91.9793 250.422 91.992 249.63 91.9499 248.84C91.9243 248.31 91.8721 247.782 91.7933 247.258C91.7131 246.671 91.5989 246.09 91.4512 245.517Z" fill="#2B2875"/>
</g>
</g>
<g style="mix-blend-mode:screen" opacity="0.4">
<g style="mix-blend-mode:screen" opacity="0.4">
<path d="M101.47 245.02C100.602 241.565 98.8095 238.411 96.2813 235.892C93.753 233.372 90.5833 231.581 87.1076 230.707C87.1862 230.737 87.5063 230.853 88.0112 231.026C88.3087 231.114 88.6543 231.27 89.0515 231.434C89.4553 231.587 89.891 231.806 90.3661 232.034C90.4861 232.093 90.609 232.151 90.732 232.209C90.8513 232.277 90.9735 232.345 91.0965 232.415C91.3475 232.551 91.6035 232.696 91.869 232.841C92.3731 233.171 92.9238 233.49 93.4483 233.89C93.9953 234.256 94.5016 234.706 95.0377 235.139C95.2915 235.373 95.5454 235.607 95.8 235.844C96.0596 236.076 96.2851 236.345 96.5302 236.593C96.6517 236.719 96.7782 236.841 96.8917 236.972L97.2277 237.373C97.4496 237.639 97.6866 237.893 97.8823 238.178C98.0844 238.453 98.2866 238.728 98.4881 238.999C98.6706 239.282 98.8524 239.562 99.0299 239.836C99.2182 240.105 99.3571 240.399 99.5178 240.669C99.6712 240.946 99.8384 241.205 99.9577 241.482C100.215 242.025 100.476 242.534 100.659 243.025C100.76 243.267 100.856 243.501 100.946 243.724C101.025 243.953 101.098 244.171 101.168 244.374C101.238 244.578 101.302 244.77 101.361 244.946C101.422 245.112 101.457 245.287 101.5 245.436C101.642 245.962 101.736 246.288 101.757 246.36C101.679 245.913 101.582 245.467 101.47 245.02Z" fill="#2B2875"/>
</g>
</g>
<g style="mix-blend-mode:screen" opacity="0.4">
<g style="mix-blend-mode:screen" opacity="0.4">
<path d="M91.2656 245.835C90.0844 241.109 87.1783 236.992 83.1096 234.282C83.1052 234.276 83.1023 234.277 83.0986 234.275C83.0994 234.278 83.103 234.28 83.1066 234.282C83.1612 234.327 83.4027 234.524 83.7962 234.833C84.0101 235.019 84.2778 235.234 84.568 235.502C84.8582 235.77 85.1855 236.074 85.523 236.419C85.6983 236.587 85.8685 236.772 86.0438 236.964C86.2191 237.156 86.4045 237.352 86.582 237.565C86.7645 237.774 86.9486 237.989 87.1246 238.221C87.3006 238.453 87.4904 238.679 87.6606 238.925C87.8395 239.168 88.0191 239.415 88.1842 239.677C88.3565 239.932 88.5252 240.196 88.6859 240.466C88.7696 240.602 88.8503 240.738 88.9339 240.873L89.1629 241.292C89.3193 241.569 89.4596 241.856 89.597 242.144C89.88 242.715 90.1336 243.299 90.3568 243.896C90.5763 244.486 90.7798 245.073 90.9411 245.653C91.457 247.461 91.7435 249.327 91.7941 251.208C91.8077 251.668 91.8098 251.972 91.8098 252.07C91.8083 252.076 91.8098 252.082 91.8083 252.089C91.8078 252.094 91.8081 252.099 91.809 252.104C91.8101 252.099 91.8108 252.093 91.8112 252.088C91.8112 252.082 91.8117 252.075 91.8127 252.069C91.9628 249.974 91.7781 247.87 91.2656 245.835Z" fill="#2B2875"/>
</g>
</g>
<g style="mix-blend-mode:multiply" opacity="0.25">
<g style="mix-blend-mode:multiply" opacity="0.25">
<path d="M103.475 237.827C102.728 234.859 100.824 232.312 98.1803 230.746C95.5371 229.179 92.3717 228.722 89.3803 229.475C89.3803 229.475 89.4815 229.458 89.6721 229.429C89.8642 229.393 90.1451 229.365 90.5002 229.325C90.8574 229.293 91.2911 229.27 91.7859 229.269C92.338 229.278 92.889 229.32 93.436 229.394C94.0792 229.488 94.7136 229.632 95.3335 229.825C96.0192 230.044 96.6845 230.322 97.3218 230.655C98 231.012 98.6419 231.434 99.2386 231.913C99.856 232.404 100.418 232.96 100.915 233.57C101.419 234.177 101.857 234.835 102.223 235.532C102.577 236.208 102.865 236.916 103.083 237.646C103.286 238.334 103.428 239.038 103.507 239.75C103.576 240.392 103.592 241.037 103.556 241.682C103.525 242.23 103.458 242.776 103.355 243.317C103.257 243.799 103.152 244.218 103.048 244.558C102.945 244.897 102.854 245.165 102.784 245.343C102.732 245.479 102.701 245.563 102.688 245.6C103.855 243.176 104.133 240.426 103.475 237.827Z" fill="#2B2875"/>
</g>
</g>
</svg>
